<?xml version="1.0" encoding="UTF-8" standalone="no"?>
<svg
   viewBox="0 0 128 128"
   style="display:inline;enable-background:new"
   version="1.0"
   id="svg11300"
   height="128"
   width="128"
   sodipodi:docname="manuals.svg"
   inkscape:version="1.3.2 (091e20ef0f, 2023-11-25)"
   xmlns:inkscape="http://www.inkscape.org/namespaces/inkscape"
   xmlns:sodipodi="http://sodipodi.sourceforge.net/DTD/sodipodi-0.dtd"
   xmlns:xlink="http://www.w3.org/1999/xlink"
   xmlns="http://www.w3.org/2000/svg"
   xmlns:svg="http://www.w3.org/2000/svg"
   xmlns:rdf="http://www.w3.org/1999/02/22-rdf-syntax-ns#"
   xmlns:cc="http://creativecommons.org/ns#"
   xmlns:dc="http://purl.org/dc/elements/1.1/">
  <sodipodi:namedview
     id="namedview1"
     pagecolor="#ffffff"
     bordercolor="#000000"
     borderopacity="0.25"
     inkscape:showpageshadow="2"
     inkscape:pageopacity="0.0"
     inkscape:pagecheckerboard="0"
     inkscape:deskcolor="#d1d1d1"
     inkscape:zoom="1"
     inkscape:cx="74.5"
     inkscape:cy="88.5"
     inkscape:window-width="2560"
     inkscape:window-height="1403"
     inkscape:window-x="0"
     inkscape:window-y="0"
     inkscape:window-maximized="1"
     inkscape:current-layer="svg11300" />
  <title
     id="title4162">Adwaita Icon Template</title>
  <defs
     id="defs3">
    <linearGradient
       id="linearGradient1879">
      <stop
         style="stop-color:#e8e7e4;stop-opacity:1"
         offset="0"
         id="stop1873" />
      <stop
         id="stop1875"
         offset="0.5"
         style="stop-color:#ffffff;stop-opacity:1" />
      <stop
         style="stop-color:#c9c6c1;stop-opacity:1"
         offset="1"
         id="stop1877" />
    </linearGradient>
    <linearGradient
       y2="120"
       x2="416"
       y1="120"
       x1="384"
       gradientTransform="matrix(0.25,0,0,0.25,6.9488522e-8,53)"
       gradientUnits="userSpaceOnUse"
       id="linearGradient1037"
       xlink:href="#linearGradient1879" />
    <clipPath
       id="m">
      <rect
         height="128"
         width="128"
         id="rect19"
         x="0"
         y="0" />
    </clipPath>
    <mask
       id="i">
      <g
         clip-path="url(#h)"
         filter="url(#b)"
         id="g16">
        <g
           clip-path="url(#g)"
           id="g15">
          <path
             d="m 24,28 v 92 h 72 c 4.43359,0 8,-3.56641 8,-8 V 36 c 0,-4.433594 -3.56641,-8 -8,-8 z m 0,0"
             fill="#a51d2d"
             id="path7" />
          <path
             d="m 24,102 h 8 v 18 h -8 z m 0,0"
             fill="#191622"
             id="path8" />
          <path
             d="m 26,48 v 70 h 70 c 4.43359,0 8,-3.56641 8,-8 V 56 c 0,-4.433594 -3.56641,-8 -8,-8 z m 0,0"
             fill="url(#a)"
             id="path9" />
          <path
             d="m 24,28 v 76 h 72 c 4.43359,0 8,-3.56641 8,-8 V 36 c 0,-4.433594 -3.56641,-8 -8,-8 z m 0,0"
             fill="#ac1d2e"
             id="path10" />
          <path
             d="m 24,8 v 94 h 72 c 4.43359,0 8,-3.566406 8,-8 V 16 c 0,-4.433594 -3.56641,-8 -8,-8 z m 0,0"
             fill="#ed333b"
             id="path11" />
          <path
             d="m 24,8 h 8 v 94 h -8 z m 0,0"
             fill="#424048"
             id="path12" />
          <g
             id="use12"
             clip-path="url(#e)">
            <path
               d="m 26,8 h 2 v 94 h -2 z m 0,0"
               fill="#ffffff"
               id="path3" />
          </g>
          <path
             d="M 58,34.019531 V 40 h -0.75 c -2.1875,0 -3.257812,1.207031 -3.257812,3.304688 v 6.617187 c 0,3.082031 -0.941407,4.378906 -2.992188,5.003906 2.050781,0.625 2.992188,1.917969 2.992188,5 v 6.769531 C 53.992188,68.792969 55.0625,70 57.25,70 H 58 v 5.828125 h -1.566406 c -5.582032,0 -8.441406,-2.859375 -8.441406,-7.996094 v -7.730469 c 0,-1.429687 -0.761719,-2.105468 -1.964844,-2.101562 H 44 v -5.957031 h 2.027344 c 1.203125,0 1.964844,-0.667969 1.964844,-2.097657 v -7.929687 c 0,-5.136719 2.859374,-7.996094 8.441406,-7.996094 z m 0,0"
             fill="#ffffff"
             id="path13" />
          <path
             d="M 74,34.019531 V 40 h 0.75 c 2.1875,0 3.257812,1.207031 3.257812,3.304688 v 6.617187 c 0,3.082031 0.941407,4.378906 2.992188,5.003906 -2.050781,0.625 -2.992188,1.917969 -2.992188,5 v 6.769531 C 78.007812,68.792969 76.9375,70 74.75,70 H 74 v 5.828125 h 1.566406 c 5.582032,0 8.441406,-2.859375 8.441406,-7.996094 v -7.730469 c 0,-1.429687 0.761719,-2.105468 1.964844,-2.101562 H 88 v -5.957031 h -2.027344 c -1.203125,0 -1.964844,-0.667969 -1.964844,-2.097657 v -7.929687 c 0,-5.136719 -2.859374,-7.996094 -8.441406,-7.996094 z m 0,0"
             fill="#ffffff"
             id="path14" />
          <path
             d="m 24,102 h 8 v 2 h -8 z m 0,0"
             fill="#191622"
             id="path15" />
        </g>
      </g>
    </mask>
    <clipPath
       id="h">
      <rect
         height="128"
         width="128"
         id="rect7"
         x="0"
         y="0" />
    </clipPath>
    <filter
       id="b"
       height="1"
       width="1"
       x="0"
       y="0">
      <feColorMatrix
         in="SourceGraphic"
         type="matrix"
         values="0 0 0 0 1 0 0 0 0 1 0 0 0 0 1 0 0 0 1 0"
         id="feColorMatrix3" />
    </filter>
    <clipPath
       id="g">
      <rect
         height="128"
         width="128"
         id="rect6"
         x="0"
         y="0" />
    </clipPath>
    <linearGradient
       id="a"
       gradientUnits="userSpaceOnUse"
       x1="96"
       x2="104"
       y1="83"
       y2="83">
      <stop
         offset="0"
         stop-color="#e8e7e4"
         id="stop1" />
      <stop
         offset="0.5"
         stop-color="#ffffff"
         id="stop2" />
      <stop
         offset="1"
         stop-color="#c9c6c1"
         id="stop3" />
    </linearGradient>
    <clipPath
       id="e">
      <rect
         height="128"
         width="128"
         id="rect5"
         x="0"
         y="0" />
    </clipPath>
    <mask
       id="d">
      <g
         filter="url(#b)"
         id="g4">
        <rect
           fill-opacity="0.223"
           height="128"
           width="128"
           id="rect4"
           x="0"
           y="0" />
      </g>
    </mask>
    <filter
       id="filter1"
       height="1"
       width="1"
       x="0"
       y="0">
      <feColorMatrix
         in="SourceGraphic"
         type="matrix"
         values="0 0 0 0 1 0 0 0 0 1 0 0 0 0 1 0 0 0 1 0"
         id="feColorMatrix1" />
    </filter>
    <clipPath
       id="clipPath1">
      <rect
         height="128"
         width="128"
         id="rect1"
         x="0"
         y="0" />
    </clipPath>
    <clipPath
       id="l">
      <rect
         height="128"
         width="128"
         id="rect18"
         x="0"
         y="0" />
    </clipPath>
    <mask
       id="j">
      <g
         filter="url(#b)"
         id="g17">
        <rect
           fill-opacity="0.8"
           height="128"
           width="128"
           id="rect16"
           x="0"
           y="0" />
      </g>
    </mask>
    <filter
       id="filter2"
       height="1"
       width="1"
       x="0"
       y="0">
      <feColorMatrix
         in="SourceGraphic"
         type="matrix"
         values="0 0 0 0 1 0 0 0 0 1 0 0 0 0 1 0 0 0 1 0"
         id="feColorMatrix2" />
    </filter>
    <linearGradient
       id="k"
       gradientTransform="matrix(0,0.37,-0.98462,0,295.38501,-30.360001)"
       gradientUnits="userSpaceOnUse"
       x1="300"
       x2="428"
       y1="235"
       y2="235">
      <stop
         offset="0"
         stop-color="#f9f06b"
         id="stop17" />
      <stop
         offset="1"
         stop-color="#f5c211"
         id="stop18" />
    </linearGradient>
  </defs>
  <metadata
     id="metadata4">
    <rdf:RDF>
      <cc:Work
         rdf:about="">
        <dc:format>image/svg+xml</dc:format>
        <dc:type
           rdf:resource="http://purl.org/dc/dcmitype/StillImage" />
        <dc:creator>
          <cc:Agent>
            <dc:title>GNOME Design Team</dc:title>
          </cc:Agent>
        </dc:creator>
        <dc:source />
        <cc:license
           rdf:resource="http://creativecommons.org/licenses/by-sa/4.0/" />
        <dc:title>Adwaita Icon Template</dc:title>
        <dc:subject>
          <rdf:Bag />
        </dc:subject>
        <dc:date />
        <dc:rights>
          <cc:Agent>
            <dc:title />
          </cc:Agent>
        </dc:rights>
        <dc:publisher>
          <cc:Agent>
            <dc:title />
          </cc:Agent>
        </dc:publisher>
        <dc:identifier />
        <dc:relation />
        <dc:language />
        <dc:coverage />
        <dc:description />
        <dc:contributor>
          <cc:Agent>
            <dc:title />
          </cc:Agent>
        </dc:contributor>
      </cc:Work>
      <cc:License
         rdf:about="http://creativecommons.org/licenses/by-sa/4.0/">
        <cc:permits
           rdf:resource="http://creativecommons.org/ns#Reproduction" />
        <cc:permits
           rdf:resource="http://creativecommons.org/ns#Distribution" />
        <cc:requires
           rdf:resource="http://creativecommons.org/ns#Notice" />
        <cc:requires
           rdf:resource="http://creativecommons.org/ns#Attribution" />
        <cc:permits
           rdf:resource="http://creativecommons.org/ns#DerivativeWorks" />
        <cc:requires
           rdf:resource="http://creativecommons.org/ns#ShareAlike" />
      </cc:License>
    </rdf:RDF>
  </metadata>
  <path
     id="rect954-3-1"
     d="m 24,28 v 92 h 72 c 4.432,0 8,-3.568 8,-8 V 36 c 0,-4.432 -3.568,-8 -8,-8 z"
     style="display:inline;fill:#f6d32d;fill-opacity:1;stroke:none;stroke-width:6;stroke-linecap:butt;stroke-linejoin:miter;stroke-miterlimit:4;stroke-dasharray:none;stroke-dashoffset:0;stroke-opacity:1;marker:none;marker-start:none;marker-mid:none;marker-end:none;paint-order:normal;enable-background:new" />
  <rect
     style="display:inline;fill:#191622;fill-opacity:1;stroke:none;stroke-width:6;stroke-linecap:butt;stroke-linejoin:miter;stroke-miterlimit:4;stroke-dasharray:none;stroke-dashoffset:0;stroke-opacity:1;marker:none;marker-start:none;marker-mid:none;marker-end:none;paint-order:normal;enable-background:new"
     id="rect968"
     width="8"
     height="17.999992"
     x="24"
     y="102" />
  <path
     id="rect954-3-6-2"
     d="m 26,48 v 70 h 70 c 4.432,0 8,-3.568 8,-8 V 56 c 0,-4.432 -3.568,-8 -8,-8 z"
     style="display:inline;fill:url(#linearGradient1037);fill-opacity:1;stroke:none;stroke-width:6;stroke-linecap:butt;stroke-linejoin:miter;stroke-miterlimit:4;stroke-dasharray:none;stroke-dashoffset:0;stroke-opacity:1;marker:none;marker-start:none;marker-mid:none;marker-end:none;paint-order:normal;enable-background:new" />
  <path
     id="rect954-3-2-7"
     d="m 24,28 v 76 h 72 c 4.432,0 8,-3.568 8,-8 V 36 c 0,-4.432 -3.568,-8 -8,-8 z"
     style="display:inline;fill:#f6d32d;fill-opacity:1;stroke:none;stroke-width:6;stroke-linecap:butt;stroke-linejoin:miter;stroke-miterlimit:4;stroke-dasharray:none;stroke-dashoffset:0;stroke-opacity:1;marker:none;marker-start:none;marker-mid:none;marker-end:none;paint-order:normal;enable-background:new" />
  <path
     id="rect954-3-2-9-0-3-0"
     d="m 24,8 v 94 h 72 c 4.432,0 8,-3.568 8,-8 V 16 c 0,-4.432 -3.568,-8 -8,-8 z"
     style="display:inline;fill:#f9f06b;fill-opacity:1;stroke:none;stroke-width:6;stroke-linecap:butt;stroke-linejoin:miter;stroke-miterlimit:4;stroke-dasharray:none;stroke-dashoffset:0;stroke-opacity:1;marker:none;marker-start:none;marker-mid:none;marker-end:none;paint-order:normal;enable-background:new" />
  <rect
     style="display:inline;fill:#424048;fill-opacity:1;stroke:none;stroke-width:6;stroke-linecap:butt;stroke-linejoin:miter;stroke-miterlimit:4;stroke-dasharray:none;stroke-dashoffset:0;stroke-opacity:1;marker:none;marker-start:none;marker-mid:none;marker-end:none;paint-order:normal;enable-background:new"
     id="rect970"
     width="8"
     height="94.000008"
     x="24"
     y="8" />
  <path
     style="display:inline;opacity:0.223;fill:#ffffff;fill-opacity:1;stroke:none;stroke-width:6;stroke-linecap:butt;stroke-linejoin:miter;stroke-miterlimit:4;stroke-dasharray:none;stroke-dashoffset:0;stroke-opacity:1;marker:none;marker-start:none;marker-mid:none;marker-end:none;paint-order:normal;enable-background:new"
     d="m 26,8.00001 h 2 v 94 h -2 z"
     id="rect1366-2-9" />
  <g
     color="#000000"
     fill="#2e3436"
     id="g2"
     transform="matrix(3.0062452,0,0,3,41.329429,29.2725)"
     style="fill:#191622;fill-opacity:1">
    <path
       d="M 1.09,13.218 2,12.997 3.433,11.579 c 0.354,0.156 1.614,0.167 1.968,0 l 1.566,1.418 0.775,0.22 0.199,0.234 v 1.546 H 0.936 V 13.473 Z M 7.535,1.987 A 1.528,1.528 0 0 0 6.007,3.514 1.528,1.528 0 0 0 6.129,4.108 L 4.63,5.93 a 2.5,2.5 0 0 0 -0.189,-0.01 2.5,2.5 0 0 0 -2.5,2.5 2.5,2.5 0 0 0 2.5,2.5 2.5,2.5 0 0 0 2.5,-2.5 A 2.5,2.5 0 0 0 6.648,7.247 L 7.525,5.042 a 1.528,1.528 0 0 0 0.01,0 1.528,1.528 0 0 0 1.355,-0.827 l 1.951,0.45 a 1.528,1.528 0 0 0 1.51,1.304 1.528,1.528 0 0 0 1.53,-1.527 1.528,1.528 0 0 0 -1.53,-1.527 1.528,1.528 0 0 0 -1.367,0.851 L 9.043,3.27 A 1.528,1.528 0 0 0 7.535,1.987 Z"
       style="isolation:auto;mix-blend-mode:normal;fill:#191622;marker:none;fill-opacity:1"
       overflow="visible"
       id="path1" />
    <path
       d="m 10.941,7.997 -1.066,1.91 0.779,2.09 h 0.531 l -0.244,-2.469 1.219,-0.187 0.215,1.698 0.575,-0.004 0.21,-1.663 0.937,0.093 0.094,2.5 0.562,0.032 0.594,-2.563 -1.395,-1.219 V 6.987 h -2.949 z"
       style="isolation:auto;mix-blend-mode:normal;fill:#191622;marker:none;fill-opacity:1"
       overflow="visible"
       id="path2" />
  </g>
  <rect
     style="fill:#191622;fill-opacity:1;stroke:none;stroke-width:6;stroke-linecap:butt;stroke-linejoin:miter;stroke-miterlimit:4;stroke-dasharray:none;stroke-dashoffset:0;stroke-opacity:1;marker:none;marker-start:none;marker-mid:none;marker-end:none;paint-order:normal"
     id="rect963"
     width="8"
     height="2"
     x="24"
     y="102" />
  <g
     clip-path="url(#m)"
     mask="url(#i)"
     id="g30"
     transform="translate(0,3.75e-4)">
    <g
       clip-path="url(#l)"
       mask="url(#j)"
       id="g29">
      <path
         d="M 128,80.640625 V 128 H 0 V 80.640625 Z m 0,0"
         fill="url(#k)"
         id="path28"
         style="fill:url(#k)" />
      <path
         d="M 13.308594,80.640625 60.664062,128 H 81.878906 L 34.519531,80.640625 Z m 42.421875,0 L 103.09375,128 h 21.21484 L 76.945312,80.640625 Z m 42.429687,0 L 128,110.48047 V 89.269531 l -8.62891,-8.628906 z M 0,88.546875 V 109.76172 L 18.238281,128 h 21.214844 z m 0,0"
         id="path29" />
    </g>
  </g>
</svg>
